<?xml version="1.0" encoding="UTF-8" standalone="no"?>
<!DOCTYPE svg PUBLIC "-//W3C//DTD SVG 1.1//EN"
 "http://www.w3.org/Graphics/SVG/1.1/DTD/svg11.dtd">
<!-- Generated by graphviz version 2.47.3 (20210619.1520)
 -->
<!-- Title: dependencies Pages: 1 -->
<svg width="194pt" height="174pt"
 viewBox="0.00 0.00 194.00 173.80" xmlns="http://www.w3.org/2000/svg" xmlns:xlink="http://www.w3.org/1999/xlink">
<g id="graph0" class="graph" transform="scale(1 1) rotate(0) translate(4 169.8)">
<title>dependencies</title>
<polygon fill="white" stroke="transparent" points="-4,4 -4,-169.8 190,-169.8 190,4 -4,4"/>
<text text-anchor="middle" x="93" y="-8.2" font-family="sans-serif" font-size="14.00">dependencies</text>
<g id="clust1" class="cluster">
<title>cluster_UtilsInterceptorsModule</title>
<polygon fill="none" stroke="black" stroke-dasharray="1,5" points="8,-32.8 8,-157.8 178,-157.8 178,-32.8 8,-32.8"/>
</g>
<g id="clust3" class="cluster">
<title>cluster_UtilsInterceptorsModule_imports</title>
<polygon fill="none" stroke="black" points="30,-40.8 30,-92.8 156,-92.8 156,-40.8 30,-40.8"/>
</g>
<!-- DatabaseModule -->
<g id="node1" class="node">
<title>DatabaseModule</title>
<polygon fill="#8dd3c7" stroke="black" points="148.35,-84.8 145.35,-88.8 124.35,-88.8 121.35,-84.8 37.65,-84.8 37.65,-48.8 148.35,-48.8 148.35,-84.8"/>
<text text-anchor="middle" x="93" y="-62.6" font-family="Times,serif" font-size="14.00">DatabaseModule</text>
</g>
<!-- UtilsInterceptorsModule -->
<g id="node2" class="node">
<title>UtilsInterceptorsModule</title>
<polygon fill="#8dd3c7" stroke="black" points="169.62,-149.8 166.62,-153.8 145.62,-153.8 142.62,-149.8 16.38,-149.8 16.38,-113.8 169.62,-113.8 169.62,-149.8"/>
<text text-anchor="middle" x="93" y="-127.6" font-family="Times,serif" font-size="14.00">UtilsInterceptorsModule</text>
</g>
<!-- DatabaseModule&#45;&gt;UtilsInterceptorsModule -->
<g id="edge1" class="edge">
<title>DatabaseModule&#45;&gt;UtilsInterceptorsModule</title>
<path fill="none" stroke="black" d="M93,-84.91C93,-84.91 93,-103.79 93,-103.79"/>
<polygon fill="black" stroke="black" points="89.5,-103.79 93,-113.79 96.5,-103.79 89.5,-103.79"/>
</g>
</g>
</svg>
