<?xml version="1.0" encoding="UTF-8" standalone="no"?>
<!DOCTYPE svg PUBLIC "-//W3C//DTD SVG 1.1//EN"
 "http://www.w3.org/Graphics/SVG/1.1/DTD/svg11.dtd">
<!-- Generated by graphviz version 2.47.3 (20210619.1520)
 -->
<!-- Title: dependencies Pages: 1 -->
<svg width="762pt" height="247pt"
 viewBox="0.00 0.00 762.00 246.80" xmlns="http://www.w3.org/2000/svg" xmlns:xlink="http://www.w3.org/1999/xlink">
<g id="graph0" class="graph" transform="scale(1 1) rotate(0) translate(4 242.8)">
<title>dependencies</title>
<polygon fill="white" stroke="transparent" points="-4,4 -4,-242.8 758,-242.8 758,4 -4,4"/>
<text text-anchor="middle" x="377" y="-8.2" font-family="sans-serif" font-size="14.00">dependencies</text>
<g id="clust1" class="cluster">
<title>cluster_DatabaseModule</title>
<polygon fill="none" stroke="black" stroke-dasharray="1,5" points="8,-32.8 8,-230.8 746,-230.8 746,-32.8 8,-32.8"/>
</g>
<g id="clust4" class="cluster">
<title>cluster_DatabaseModule_exports</title>
<polygon fill="none" stroke="black" points="75,-170.8 75,-222.8 631,-222.8 631,-170.8 75,-170.8"/>
</g>
<g id="clust6" class="cluster">
<title>cluster_DatabaseModule_providers</title>
<polygon fill="none" stroke="black" points="16,-40.8 16,-92.8 738,-92.8 738,-40.8 16,-40.8"/>
</g>
<!-- AuthenticationService  -->
<g id="node1" class="node">
<title>AuthenticationService </title>
<polygon fill="#fb8072" stroke="black" points="623.18,-214.8 478.82,-214.8 478.82,-178.8 623.18,-178.8 623.18,-214.8"/>
<text text-anchor="middle" x="551" y="-192.6" font-family="Times,serif" font-size="14.00">AuthenticationService </text>
</g>
<!-- ContentService  -->
<g id="node2" class="node">
<title>ContentService </title>
<polygon fill="#fb8072" stroke="black" points="460.81,-214.8 355.19,-214.8 355.19,-178.8 460.81,-178.8 460.81,-214.8"/>
<text text-anchor="middle" x="408" y="-192.6" font-family="Times,serif" font-size="14.00">ContentService </text>
</g>
<!-- UserService  -->
<g id="node3" class="node">
<title>UserService </title>
<polygon fill="#fb8072" stroke="black" points="336.9,-214.8 249.1,-214.8 249.1,-178.8 336.9,-178.8 336.9,-214.8"/>
<text text-anchor="middle" x="293" y="-192.6" font-family="Times,serif" font-size="14.00">UserService </text>
</g>
<!-- UxEngagementService  -->
<g id="node4" class="node">
<title>UxEngagementService </title>
<polygon fill="#fb8072" stroke="black" points="231.06,-214.8 82.94,-214.8 82.94,-178.8 231.06,-178.8 231.06,-214.8"/>
<text text-anchor="middle" x="157" y="-192.6" font-family="Times,serif" font-size="14.00">UxEngagementService </text>
</g>
<!-- DatabaseModule -->
<g id="node5" class="node">
<title>DatabaseModule</title>
<polygon fill="#8dd3c7" stroke="black" points="405.35,-149.8 402.35,-153.8 381.35,-153.8 378.35,-149.8 294.65,-149.8 294.65,-113.8 405.35,-113.8 405.35,-149.8"/>
<text text-anchor="middle" x="350" y="-127.6" font-family="Times,serif" font-size="14.00">DatabaseModule</text>
</g>
<!-- DatabaseModule&#45;&gt;AuthenticationService  -->
<g id="edge1" class="edge">
<title>DatabaseModule&#45;&gt;AuthenticationService </title>
<path fill="none" stroke="black" stroke-dasharray="5,2" d="M405.57,-137.8C447.6,-137.8 498.12,-137.8 498.12,-137.8 498.12,-137.8 498.12,-168.78 498.12,-168.78"/>
<polygon fill="black" stroke="black" points="494.62,-168.78 498.12,-178.78 501.62,-168.78 494.62,-168.78"/>
</g>
<!-- DatabaseModule&#45;&gt;ContentService  -->
<g id="edge2" class="edge">
<title>DatabaseModule&#45;&gt;ContentService </title>
<path fill="none" stroke="black" stroke-dasharray="5,2" d="M380.26,-149.91C380.26,-149.91 380.26,-168.79 380.26,-168.79"/>
<polygon fill="black" stroke="black" points="376.76,-168.79 380.26,-178.79 383.76,-168.79 376.76,-168.79"/>
</g>
<!-- DatabaseModule&#45;&gt;UserService  -->
<g id="edge3" class="edge">
<title>DatabaseModule&#45;&gt;UserService </title>
<path fill="none" stroke="black" stroke-dasharray="5,2" d="M315.76,-149.91C315.76,-149.91 315.76,-168.79 315.76,-168.79"/>
<polygon fill="black" stroke="black" points="312.26,-168.79 315.76,-178.79 319.26,-168.79 312.26,-168.79"/>
</g>
<!-- DatabaseModule&#45;&gt;UxEngagementService  -->
<g id="edge4" class="edge">
<title>DatabaseModule&#45;&gt;UxEngagementService </title>
<path fill="none" stroke="black" stroke-dasharray="5,2" d="M294.56,-137.8C262.2,-137.8 227.67,-137.8 227.67,-137.8 227.67,-137.8 227.67,-168.78 227.67,-168.78"/>
<polygon fill="black" stroke="black" points="224.17,-168.78 227.67,-178.78 231.17,-168.78 224.17,-168.78"/>
</g>
<!-- AuthenticationService -->
<g id="node6" class="node">
<title>AuthenticationService</title>
<ellipse fill="#fdb462" stroke="black" cx="633" cy="-66.8" rx="97.27" ry="18"/>
<text text-anchor="middle" x="633" y="-62.6" font-family="Times,serif" font-size="14.00">AuthenticationService</text>
</g>
<!-- AuthenticationService&#45;&gt;DatabaseModule -->
<g id="edge5" class="edge">
<title>AuthenticationService&#45;&gt;DatabaseModule</title>
<path fill="none" stroke="black" d="M579.48,-81.99C579.48,-99.48 579.48,-125.8 579.48,-125.8 579.48,-125.8 415.55,-125.8 415.55,-125.8"/>
<polygon fill="black" stroke="black" points="415.55,-122.3 405.55,-125.8 415.55,-129.3 415.55,-122.3"/>
</g>
<!-- ContentService -->
<g id="node7" class="node">
<title>ContentService</title>
<ellipse fill="#fdb462" stroke="black" cx="447" cy="-66.8" rx="70.64" ry="18"/>
<text text-anchor="middle" x="447" y="-62.6" font-family="Times,serif" font-size="14.00">ContentService</text>
</g>
<!-- ContentService&#45;&gt;DatabaseModule -->
<g id="edge6" class="edge">
<title>ContentService&#45;&gt;DatabaseModule</title>
<path fill="none" stroke="black" d="M390.93,-77.83C390.93,-77.83 390.93,-103.58 390.93,-103.58"/>
<polygon fill="black" stroke="black" points="387.43,-103.58 390.93,-113.58 394.43,-103.58 387.43,-103.58"/>
</g>
<!-- UserService -->
<g id="node8" class="node">
<title>UserService</title>
<ellipse fill="#fdb462" stroke="black" cx="300" cy="-66.8" rx="58.44" ry="18"/>
<text text-anchor="middle" x="300" y="-62.6" font-family="Times,serif" font-size="14.00">UserService</text>
</g>
<!-- UserService&#45;&gt;DatabaseModule -->
<g id="edge7" class="edge">
<title>UserService&#45;&gt;DatabaseModule</title>
<path fill="none" stroke="black" d="M326.4,-82.87C326.4,-82.87 326.4,-103.62 326.4,-103.62"/>
<polygon fill="black" stroke="black" points="322.9,-103.62 326.4,-113.62 329.9,-103.62 322.9,-103.62"/>
</g>
<!-- UxEngagementService -->
<g id="node9" class="node">
<title>UxEngagementService</title>
<ellipse fill="#fdb462" stroke="black" cx="124" cy="-66.8" rx="100.12" ry="18"/>
<text text-anchor="middle" x="124" y="-62.6" font-family="Times,serif" font-size="14.00">UxEngagementService</text>
</g>
<!-- UxEngagementService&#45;&gt;DatabaseModule -->
<g id="edge8" class="edge">
<title>UxEngagementService&#45;&gt;DatabaseModule</title>
<path fill="none" stroke="black" d="M153.39,-84.18C153.39,-101.59 153.39,-125.8 153.39,-125.8 153.39,-125.8 284.45,-125.8 284.45,-125.8"/>
<polygon fill="black" stroke="black" points="284.45,-129.3 294.45,-125.8 284.45,-122.3 284.45,-129.3"/>
</g>
</g>
</svg>
