<?xml version="1.0" encoding="UTF-8" standalone="no"?>
<!DOCTYPE svg PUBLIC "-//W3C//DTD SVG 1.1//EN"
 "http://www.w3.org/Graphics/SVG/1.1/DTD/svg11.dtd">
<!-- Generated by graphviz version 2.47.3 (20210619.1520)
 -->
<!-- Title: dependencies Pages: 1 -->
<svg width="398pt" height="174pt"
 viewBox="0.00 0.00 398.00 173.80" xmlns="http://www.w3.org/2000/svg" xmlns:xlink="http://www.w3.org/1999/xlink">
<g id="graph0" class="graph" transform="scale(1 1) rotate(0) translate(4 169.8)">
<title>dependencies</title>
<polygon fill="white" stroke="transparent" points="-4,4 -4,-169.8 394,-169.8 394,4 -4,4"/>
<text text-anchor="middle" x="195" y="-8.2" font-family="sans-serif" font-size="14.00">dependencies</text>
<g id="clust1" class="cluster">
<title>cluster_UtilsPipesModule</title>
<polygon fill="none" stroke="black" stroke-dasharray="1,5" points="8,-32.8 8,-157.8 382,-157.8 382,-32.8 8,-32.8"/>
</g>
<g id="clust6" class="cluster">
<title>cluster_UtilsPipesModule_providers</title>
<polygon fill="none" stroke="black" points="16,-40.8 16,-92.8 374,-92.8 374,-40.8 16,-40.8"/>
</g>
<!-- LimitPipe -->
<g id="node1" class="node">
<title>LimitPipe</title>
<ellipse fill="#fdb462" stroke="black" cx="316" cy="-66.8" rx="49.83" ry="18"/>
<text text-anchor="middle" x="316" y="-62.6" font-family="Times,serif" font-size="14.00">LimitPipe</text>
</g>
<!-- UtilsPipesModule -->
<g id="node4" class="node">
<title>UtilsPipesModule</title>
<polygon fill="#8dd3c7" stroke="black" points="259.61,-149.8 256.61,-153.8 235.61,-153.8 232.61,-149.8 142.39,-149.8 142.39,-113.8 259.61,-113.8 259.61,-149.8"/>
<text text-anchor="middle" x="201" y="-127.6" font-family="Times,serif" font-size="14.00">UtilsPipesModule</text>
</g>
<!-- LimitPipe&#45;&gt;UtilsPipesModule -->
<g id="edge1" class="edge">
<title>LimitPipe&#45;&gt;UtilsPipesModule</title>
<path fill="none" stroke="black" d="M266.06,-66.8C258.82,-66.8 253.76,-66.8 253.76,-66.8 253.76,-66.8 253.76,-103.69 253.76,-103.69"/>
<polygon fill="black" stroke="black" points="250.26,-103.69 253.76,-113.69 257.26,-103.69 250.26,-103.69"/>
</g>
<!-- PagePipe -->
<g id="node2" class="node">
<title>PagePipe</title>
<ellipse fill="#fdb462" stroke="black" cx="201" cy="-66.8" rx="46.95" ry="18"/>
<text text-anchor="middle" x="201" y="-62.6" font-family="Times,serif" font-size="14.00">PagePipe</text>
</g>
<!-- PagePipe&#45;&gt;UtilsPipesModule -->
<g id="edge2" class="edge">
<title>PagePipe&#45;&gt;UtilsPipesModule</title>
<path fill="none" stroke="black" d="M201,-84.91C201,-84.91 201,-103.79 201,-103.79"/>
<polygon fill="black" stroke="black" points="197.5,-103.79 201,-113.79 204.5,-103.79 197.5,-103.79"/>
</g>
<!-- SortByPipe -->
<g id="node3" class="node">
<title>SortByPipe</title>
<ellipse fill="#fdb462" stroke="black" cx="80" cy="-66.8" rx="55.64" ry="18"/>
<text text-anchor="middle" x="80" y="-62.6" font-family="Times,serif" font-size="14.00">SortByPipe</text>
</g>
<!-- SortByPipe&#45;&gt;UtilsPipesModule -->
<g id="edge3" class="edge">
<title>SortByPipe&#45;&gt;UtilsPipesModule</title>
<path fill="none" stroke="black" d="M135.72,-66.8C143.13,-66.8 148.24,-66.8 148.24,-66.8 148.24,-66.8 148.24,-103.69 148.24,-103.69"/>
<polygon fill="black" stroke="black" points="144.74,-103.69 148.24,-113.69 151.74,-103.69 144.74,-103.69"/>
</g>
</g>
</svg>
